<svg height='27.5px' width='27.5px'  fill="#ffffff" xmlns="http://www.w3.org/2000/svg" xmlns:xlink="http://www.w3.org/1999/xlink" version="1.1" x="0px" y="0px" viewBox="0 0 30 30" style="enable-background:new 0 0 30 30;" xml:space="preserve"><path d="M26,1H4C2.346,1,1,2.346,1,4v16c0,1.654,1.346,3,3,3h3.55l-0.544,4.89c-0.046,0.413,0.168,0.811,0.537,1  C7.687,28.964,7.844,29,8,29c0.241,0,0.481-0.088,0.669-0.257L15.051,23H26c1.654,0,3-1.346,3-3V4C29,2.346,27.654,1,26,1z M24,18H6  c-0.553,0-1-0.448-1-1s0.447-1,1-1h18c0.553,0,1,0.448,1,1S24.553,18,24,18z M24,13H6c-0.553,0-1-0.448-1-1s0.447-1,1-1h18  c0.553,0,1,0.448,1,1S24.553,13,24,13z M24,8H6C5.447,8,5,7.552,5,7s0.447-1,1-1h18c0.553,0,1,0.448,1,1S24.553,8,24,8z"></path></svg>